<svg width="432" height="18" viewBox="0 0 432 18" fill="none" xmlns="http://www.w3.org/2000/svg">
<path d="M27.84 1.35999V0.399994H10.624C9.11996 0.399994 8.15996 0.879993 7.13596 1.77599L2.33596 6.51199C1.43996 7.53599 0.959961 8.49599 0.959961 9.99999V18H4.79996V7.24799L7.32796 9.58399C8.31996 10.512 9.31196 10.96 10.816 10.96H21.632C22.912 10.96 24 11.984 24 13.264V18H27.84V17.04C27.84 15.536 27.424 14.512 26.464 13.552L22.048 9.19999L26.464 4.84799C27.424 3.88799 27.84 2.86399 27.84 1.35999ZM21.632 7.43999H7.16796C5.85596 7.43999 4.79996 6.63999 4.79996 5.67999C4.79996 4.71999 5.85596 3.91999 7.16796 3.91999H24V5.13599C24 6.41599 22.912 7.43999 21.632 7.43999Z" fill="white"/>
<path d="M56.0275 0.399994H38.8115C37.3075 0.399994 36.3475 0.879993 35.3235 1.77599L30.5235 6.51199C29.6275 7.53599 29.1475 8.49599 29.1475 9.99999V18H32.9875V10.96H46.3635C47.8675 10.96 48.8275 10.48 49.8515 9.58399L52.1875 7.27999V18H56.0275V0.399994ZM49.8195 7.43999H32.9875V6.22399C32.9875 4.94399 34.0755 3.91999 35.3555 3.91999H52.1875V5.13599C52.1875 6.41599 51.0995 7.43999 49.8195 7.43999Z" fill="white"/>
<path d="M84.84 0.399994H67.624C66.12 0.399994 65.16 0.879993 64.136 1.77599L59.336 6.51199C58.44 7.53599 57.96 8.49599 57.96 9.99999V18H61.8V6.22399C61.8 4.94399 62.888 3.91999 64.168 3.91999H81V18H84.84V0.399994Z" fill="white"/>
<path d="M92.9805 3.91999H113.652V0.399994H96.7565C95.2525 0.399994 94.2605 0.911993 93.2685 1.77599L88.1485 6.28799C87.1565 7.15199 86.7725 7.95199 86.7725 9.19999C86.7725 10.448 87.1565 11.216 88.1485 12.112L93.2685 16.624C94.2605 17.52 95.2525 18 96.7565 18H103.988C105.492 18 106.516 17.584 107.476 16.624L112.276 11.888C113.236 10.928 113.652 9.90399 113.652 8.39999V7.43999H94.4525V10.96H109.812V12.176C109.812 13.456 108.724 14.48 107.444 14.48H92.9805C91.7005 14.48 90.6125 13.456 90.6125 12.176V6.22399C90.6125 4.94399 91.7005 3.91999 92.9805 3.91999Z" fill="white"/>
<path d="M121.793 3.91999H142.465V0.399994H125.569C124.065 0.399994 123.073 0.911993 122.081 1.77599L116.961 6.28799C115.969 7.15199 115.585 7.95199 115.585 9.19999C115.585 10.448 115.969 11.216 116.961 12.112L122.081 16.624C123.073 17.52 124.065 18 125.569 18H142.465V14.48H121.793C120.513 14.48 119.425 13.456 119.425 12.176V10.96H142.465V7.43999H119.425V6.22399C119.425 4.94399 120.513 3.91999 121.793 3.91999Z" fill="white"/>
<path d="M317.168 3.91999H337.84V0.399994H320.624C319.12 0.399994 318.16 0.879993 317.136 1.77599L312.336 6.51199C311.44 7.53599 310.96 8.49599 310.96 9.99999V10.96H334V12.176C334 13.456 332.912 14.48 331.632 14.48H310.96V18H328.176C329.68 18 330.64 17.52 331.664 16.624L336.464 11.888C337.36 10.864 337.84 9.90399 337.84 8.39999V7.43999H314.8V6.22399C314.8 4.94399 315.888 3.91999 317.168 3.91999Z" fill="white"/>
<path d="M370.492 0.399994V14.48H361.436C360.156 14.48 358.972 13.296 358.972 12.016V0.399994H355.132V14.48H346.076C344.796 14.48 343.612 13.296 343.612 12.016V0.399994H339.772V8.39999C339.772 9.90399 340.252 10.864 341.148 11.888L345.948 16.624C346.972 17.52 347.932 18 349.436 18H358.972V14.32L361.308 16.624C362.268 17.584 363.292 18 364.796 18H374.332V0.399994H370.492Z" fill="white"/>
<path d="M403.121 0.399994H385.905C384.401 0.399994 383.441 0.879993 382.417 1.77599L377.617 6.51199C376.721 7.53599 376.241 8.49599 376.241 9.99999V18H380.081V10.96H393.457C394.961 10.96 395.921 10.48 396.945 9.58399L399.281 7.27999V18H403.121V0.399994ZM396.913 7.43999H380.081V6.22399C380.081 4.94399 381.169 3.91999 382.449 3.91999H399.281V5.13599C399.281 6.41599 398.193 7.43999 396.913 7.43999Z" fill="white"/>
<path d="M431.934 0.399994H414.718C413.214 0.399994 412.254 0.879993 411.23 1.77599L406.43 6.51199C405.534 7.53599 405.054 8.49599 405.054 9.99999V18H408.894V10.96H422.27C423.774 10.96 424.734 10.48 425.758 9.58399L430.558 4.84799C431.454 3.82399 431.934 2.86399 431.934 1.35999V0.399994ZM425.726 7.43999H408.894V6.22399C408.894 4.94399 409.982 3.91999 411.262 3.91999H428.094V5.13599C428.094 6.41599 427.006 7.43999 425.726 7.43999Z" fill="white"/>
</svg>
