<svg width="200" height="200" viewBox="0 0 200 200" fill="none" xmlns="http://www.w3.org/2000/svg">
<rect width="200" height="200" fill="#0D0A1C"/>
<path d="M65 86.6364V85H35.5381C32.9643 85 31.3214 85.8182 29.569 87.3455L21.3548 95.4182C19.8214 97.1636 19 98.8 19 101.364V115H25.5714V96.6727L29.8976 100.655C31.5952 102.236 33.2929 103 35.8667 103H54.3762C56.5667 103 58.4286 104.745 58.4286 106.927V115H65V113.364C65 110.8 64.2881 109.055 62.6452 107.418L55.0881 100L62.6452 92.5818C64.2881 90.9455 65 89.2 65 86.6364ZM54.3762 97H29.6238C27.3786 97 25.5714 95.6364 25.5714 94C25.5714 92.3636 27.3786 91 29.6238 91H58.4286V93.0727C58.4286 95.2545 56.5667 97 54.3762 97Z" fill="white"/>
<path fill-rule="evenodd" clip-rule="evenodd" d="M128 100H74V96H128V100Z" fill="url(#paint0_linear_8:67)"/>
<path d="M147.393 91H182V85H153.179C150.661 85 149.054 85.8182 147.339 87.3455L139.304 95.4182C137.804 97.1636 137 98.8 137 101.364V103H175.571V105.073C175.571 107.255 173.75 109 171.607 109H137V115H165.821C168.339 115 169.946 114.182 171.661 112.655L179.696 104.582C181.196 102.836 182 101.2 182 98.6364V97H143.429V94.9273C143.429 92.7455 145.25 91 147.393 91Z" fill="white"/>
<defs>
<linearGradient id="paint0_linear_8:67" x1="74" y1="100.003" x2="128" y2="100.003" gradientUnits="userSpaceOnUse">
<stop stop-color="#785FDA"/>
<stop offset="1" stop-color="#FF6D41"/>
</linearGradient>
</defs>
</svg>
